HIERARCHY
ROOT Hips
{
	OFFSET 0.000000 0.000000 0.000000 
	CHANNELS 6 Xposition Yposition Zposition Zrotation Yrotation Xrotation
	JOINT LeftUpLeg
	{
		OFFSET 1.363060 -1.794630 0.839290 
		CHANNELS 3 Zrotation Yrotation Xrotation
		JOINT LeftLeg
		{
			OFFSET 2.448110 -6.726130 0.000000 
			CHANNELS 3 Zrotation Yrotation Xrotation
			JOINT LeftFoot
			{
				OFFSET 2.562200 -7.039590 0.000000 
				CHANNELS 3 Zrotation Yrotation Xrotation
				JOINT LeftToeBase
				{
					OFFSET 0.157640 -0.433110 2.322550 
					CHANNELS 3 Zrotation Yrotation Xrotation
					End Site
					{
						OFFSET 0.000000 0.000000 0.000000 
					}
				}
			}
		}
	}
	JOINT RightUpLeg
	{
		OFFSET -1.305520 -1.794630 0.839290 
		CHANNELS 3 Zrotation Yrotation Xrotation
		JOINT RightLeg
		{
			OFFSET -2.542530 -6.985550 0.000000 
			CHANNELS 3 Zrotation Yrotation Xrotation
			JOINT RightFoot
			{
				OFFSET -2.568260 -7.056230 0.000000 
				CHANNELS 3 Zrotation Yrotation Xrotation
				JOINT RightToeBase
				{
					OFFSET -0.164730 -0.452590 2.363150 
					CHANNELS 3 Zrotation Yrotation Xrotation
					End Site
					{
						OFFSET 0.000000 0.000000 0.000000 
					}
				}
			}
		}
	}
	JOINT Spine
	{
		OFFSET 0.028270 2.035590 -0.193380 
		CHANNELS 3 Zrotation Yrotation Xrotation
		JOINT Spine1
		{
			OFFSET 0.056720 2.048850 -0.042750 
			CHANNELS 3 Zrotation Yrotation Xrotation
			JOINT Neck1
			{
				OFFSET -0.054170 1.746240 0.172020 
				CHANNELS 3 Zrotation Yrotation Xrotation
				JOINT Head
				{
					OFFSET 0.104070 1.761360 -0.123970 
					CHANNELS 3 Zrotation Yrotation Xrotation
					End Site
					{
						OFFSET 0.000000 0.000000 0.000000 
					}
				}
			}
			JOINT LeftArm
			{
				OFFSET 3.362410 1.200890 -0.311210 
				CHANNELS 3 Zrotation Yrotation Xrotation
				JOINT LeftForeArm
				{
					OFFSET 4.983000 -0.000000 -0.000000 
					CHANNELS 3 Zrotation Yrotation Xrotation
					JOINT LeftHand
					{
						OFFSET 3.483560 -0.000000 -0.000000 
						CHANNELS 3 Zrotation Yrotation Xrotation
						JOINT LeftHandIndex1
						{
							OFFSET 0.715260 -0.000000 -0.000000 
							CHANNELS 3 Zrotation Yrotation Xrotation
							End Site
							{
								OFFSET 0.000000 0.000000 0.000000 
							}
						}
					}
				}
			}
			JOINT RightArm
			{
				OFFSET -3.136600 1.374050 -0.404650 
				CHANNELS 3 Zrotation Yrotation Xrotation
				JOINT RightForeArm
				{
					OFFSET -5.241900 -0.000000 -0.000000 
					CHANNELS 3 Zrotation Yrotation Xrotation
					JOINT RightHand
					{
						OFFSET -3.444170 -0.000000 -0.000000 
						CHANNELS 3 Zrotation Yrotation Xrotation
						JOINT RightHandIndex1
						{
							OFFSET -0.622530 -0.000000 -0.000000 
							CHANNELS 3 Zrotation Yrotation Xrotation
							End Site
							{
								OFFSET 0.000000 0.000000 0.000000 
							}
						}
					}
				}
			}
		}
	}
}
MOTION
Frames: 18
Frame Time: 0.041667
20.522800 17.859298 0.274408 79.757053 89.160350 89.606935 -28.002569 -30.204769 12.919970 0.222983 0.760211 4.075555 -2.908357 -17.345922 -0.063631 0.320200 3.637300 10.058300 32.518846 14.142738 10.223608 -0.947882 1.728402 0.482219 1.484344 32.696104 -31.162206 -0.134900 -2.367700 6.523100 1.515575 -0.133899 -3.184373 -1.187104 -0.006260 6.055471 8.481347 -22.118353 10.639180 2.870800 -10.466600 10.594000 -88.141663 -7.308261 6.585111 7.026971 -17.554931 -2.053252 1.901866 1.401876 -7.983005 -7.125000 0.000000 0.000000 92.965410 -0.232266 -1.354096 -10.612482 28.954213 -3.977650 -3.091197 1.015566 52.382740 7.125000 0.000000 0.000000 
20.518673 17.857669 0.276362 79.542220 89.098975 89.402463 -26.705186 -24.014133 9.054583 0.197879 0.634368 3.711404 -2.765798 -16.091409 1.407332 0.008600 -0.599100 -1.646300 32.512245 14.250916 10.250879 -0.953535 1.735645 0.471561 1.527410 32.867136 -31.114538 -0.132200 -2.343600 6.456300 1.507801 -0.135089 -3.117376 -1.119953 -0.014249 6.155716 8.609336 -22.116286 10.479523 2.923600 -10.459600 10.561500 -88.119643 -7.462487 6.777012 7.038915 -17.566109 -2.056126 1.896933 1.421198 -8.242181 -7.125000 0.000000 0.000000 92.784516 -0.065401 -0.731418 -11.262159 29.378125 -3.903152 -2.995238 0.680448 49.691424 7.125000 0.000000 0.000000 
20.512918 17.857343 0.277774 79.582830 89.097077 89.407763 -25.917098 -17.803073 5.572200 0.174667 0.710232 3.877669 -2.404537 -13.723257 3.495027 0.689300 -5.307700 -14.788400 32.529755 14.210709 10.251343 -0.948310 1.752025 0.432885 1.488179 32.767676 -31.177995 -0.138000 -2.394100 6.596000 1.509466 -0.153202 -3.045905 -1.108082 -0.025624 6.227227 8.588107 -22.106230 10.491321 2.904500 -10.446900 10.592400 -88.123484 -7.572281 6.823579 7.076065 -17.598860 -2.065560 1.902214 1.417153 -8.328769 -7.125000 0.000000 0.000000 92.613104 0.198739 -0.263752 -11.787553 29.674129 -3.783721 -2.871858 0.366601 47.155922 7.125000 0.000000 0.000000 
20.506403 17.857452 0.277557 79.494674 89.075930 89.182141 -25.593172 -6.069624 -0.401444 0.159729 1.329662 5.563591 -1.296882 -7.875887 7.812255 2.829600 -10.414000 -30.328000 32.572200 14.149949 10.361778 -0.937280 1.789569 0.361059 1.401549 32.640145 -31.363659 -0.149100 -2.488100 6.856700 1.489473 -0.157005 -2.971373 -1.120693 -0.027569 6.268866 8.496586 -22.111955 10.615231 2.853700 -10.442400 10.658200 -88.120144 -7.682965 6.725442 7.070958 -17.565427 -2.061790 1.909263 1.394632 -8.198514 -7.125000 0.000000 0.000000 92.403969 0.471760 0.863272 -12.699023 30.287834 -3.621443 -2.659649 -0.231730 41.306441 7.125000 0.000000 0.000000 
20.498367 17.857343 0.278208 79.518696 89.124271 89.120042 -25.528619 -6.046666 -0.374652 0.162460 1.340363 5.596283 -1.294191 -7.864506 7.871443 2.872400 -10.485600 -30.564100 32.713790 14.290383 10.613604 -0.926212 1.854121 0.211288 1.317547 32.734801 -31.672013 -0.153200 -2.521900 6.950300 1.484892 -0.171009 -2.926814 -1.075629 -0.038442 6.253051 8.511082 -22.052961 10.743953 2.858700 -10.401000 10.735000 -88.142317 -7.778647 6.614014 7.052279 -17.512017 -2.053596 1.914535 1.372911 -8.078950 -7.125000 0.000000 0.000000 92.190188 0.770480 1.340075 -14.668056 31.346241 -3.165497 -1.828000 -1.296501 37.494600 7.125000 0.000000 0.000000 
20.488920 17.857017 0.279620 79.928762 89.157050 89.515361 -25.470739 -6.077769 -0.447676 0.167084 1.372228 5.676143 -1.297533 -7.887166 7.888176 2.825200 -10.406600 -30.303600 32.842849 14.499096 10.768711 -0.928066 1.897598 0.114941 1.345429 33.035537 -31.733690 -0.145400 -2.457200 6.771100 1.520257 -0.201750 -2.928167 -1.049690 -0.053786 6.210193 8.716428 -21.901733 10.845652 2.949400 -10.304300 10.814500 -88.205090 -7.829904 6.650789 7.061331 -17.529707 -2.057818 1.920867 1.365487 -8.133729 -7.125000 0.000000 0.000000 92.074853 0.858991 1.491155 -14.624679 31.289744 -3.151042 -1.771588 -1.654988 37.371986 7.125000 0.000000 0.000000 
20.481861 17.857343 0.279837 80.399990 89.106967 89.991646 -25.522862 -6.077570 -0.531856 0.168914 1.396830 5.736803 -1.299511 -7.898626 7.827578 2.808800 -10.379000 -30.212800 32.748580 14.382386 10.654069 -0.946482 1.871484 0.179432 1.528810 33.221222 -31.234787 -0.135100 -2.369400 6.527700 1.524154 -0.219008 -2.948707 -1.010654 -0.063636 6.177252 8.837373 -21.805634 10.884712 3.014200 -10.250200 10.843000 -88.272672 -7.842569 6.775201 7.106538 -17.596558 -2.066774 1.922690 1.361578 -8.205000 -7.125000 0.000000 0.000000 91.981114 0.909715 1.601882 -14.641059 31.294990 -3.169091 -1.744067 -1.875369 37.224016 7.125000 0.000000 0.000000 
20.475346 17.859624 0.279403 81.230090 88.993249 90.810570 -25.666780 -6.127361 -0.571702 0.170213 1.429215 5.818147 -1.284058 -7.825920 7.811396 2.824800 -10.405900 -30.301300 32.539162 14.173697 10.532801 -0.958298 1.849333 0.234152 1.631087 33.193877 -30.881591 -0.138400 -2.397500 6.605500 1.508963 -0.233913 -2.947419 -0.954636 -0.070853 6.159745 8.820930 -21.792189 10.885587 3.014900 -10.247000 10.843000 -88.329437 -7.861888 6.954459 7.235581 -17.754590 -2.078986 1.902309 1.371939 -8.372913 -7.125000 0.000000 0.000000 91.891094 0.953197 1.767206 -14.799239 31.416098 -3.208954 -1.736619 -1.946174 36.948751 7.125000 0.000000 0.000000 
20.466333 17.862230 0.279511 81.996955 88.919279 91.569889 -25.760149 -6.258266 -0.603083 0.176115 1.478626 5.944645 -1.265283 -7.742823 7.913218 2.832600 -10.419000 -30.344400 32.419631 14.149376 10.474585 -0.953424 1.838190 0.267210 1.548239 33.028190 -31.070486 -0.158100 -2.562300 7.062300 1.502440 -0.264499 -2.934055 -0.920198 -0.084944 6.143662 8.828797 -21.795055 10.902576 3.015900 -10.245300 10.864000 -88.340394 -7.858061 7.372943 7.442972 -18.011694 -2.105695 1.861863 1.430528 -8.849283 -7.125000 0.000000 0.000000 91.801257 1.021225 1.992894 -15.003892 31.560205 -3.214629 -1.681073 -2.010849 36.768602 7.125000 0.000000 0.000000 
20.457646 17.863099 0.280814 81.657334 88.897681 91.220714 -25.766622 -6.277313 -0.640874 0.180092 1.506758 6.023800 -1.256548 -7.702176 7.969598 2.841300 -10.433700 -30.392800 32.407159 14.296932 10.456211 -0.941643 1.825097 0.300720 1.390936 32.846276 -31.505931 -0.179200 -2.726600 7.518400 1.489745 -0.274021 -2.903980 -0.931704 -0.092502 6.151684 8.884041 -21.825746 10.962094 3.024800 -10.249400 10.914400 -88.290657 -7.867549 7.838316 7.615736 -18.227958 -2.132452 1.829066 1.488081 -9.332108 -7.125000 0.000000 0.000000 91.773468 1.102150 2.142426 -15.178369 31.687423 -3.205928 -1.625903 -2.027589 36.765600 7.125000 0.000000 0.000000 
20.451130 17.862447 0.282226 80.717810 88.879918 90.313446 -25.756266 -6.216928 -0.723587 0.178871 1.514502 6.051719 -1.251753 -7.673379 7.914356 2.863300 -10.470400 -30.513800 32.425093 14.516145 10.463289 -0.936832 1.831268 0.278676 1.312141 32.858379 -31.786905 -0.171500 -2.667900 7.355400 1.497057 -0.282643 -2.885524 -0.914860 -0.103621 6.181594 8.925604 -21.855091 10.985261 3.035400 -10.258400 10.947200 -88.281387 -7.873561 8.157066 7.747805 -18.391963 -2.150950 1.811723 1.507036 -9.684177 -7.125000 0.000000 0.000000 91.742243 1.170235 2.282322 -15.340220 31.820438 -3.231733 -1.604080 -2.073630 36.677864 7.125000 0.000000 0.000000 
20.445375 17.861795 0.282660 80.346157 88.881968 89.999646 -25.729590 -6.187045 -0.850198 0.176597 1.529436 6.092409 -1.246052 -7.642646 7.815509 2.894300 -10.521900 -30.683900 32.484647 14.711952 10.552405 -0.937835 1.886320 0.133556 1.324486 33.085443 -31.866045 -0.145500 -2.457900 6.773100 1.528924 -0.321486 -2.919503 -0.884737 -0.125185 6.177867 8.852160 -21.839729 11.029829 3.020000 -10.261500 10.954800 -88.337345 -7.799114 8.340445 7.856528 -18.531737 -2.169671 1.806955 1.509786 -9.945156 -7.125000 0.000000 0.000000 91.686481 1.160090 2.477981 -15.499190 31.961081 -3.282215 -1.600638 -2.160415 36.387906 7.125000 0.000000 0.000000 
20.440271 17.861361 0.282335 80.591604 88.858562 90.252012 -25.745529 -6.159266 -0.924537 0.174435 1.545920 6.135089 -1.237557 -7.599613 7.722301 2.925000 -10.572700 -30.852000 32.515525 14.823555 10.757845 -0.938899 1.980564 -0.103478 1.357027 33.355389 -31.881936 -0.127500 -2.301600 6.339900 1.528227 -0.351203 -2.915531 -0.890626 -0.138440 6.200594 8.864814 -21.843830 11.130424 3.030100 -10.263200 11.008000 -88.351042 -7.849475 8.353162 7.859730 -18.539187 -2.177106 1.818043 1.502910 -10.009154 -7.125000 0.000000 0.000000 91.655253 1.187625 2.629285 -15.593518 32.054314 -3.317577 -1.607306 -2.197995 36.095673 7.125000 0.000000 0.000000 
20.436471 17.860927 0.281900 80.786531 88.764492 90.412519 -25.856176 -6.109532 -0.908041 0.172079 1.541357 6.124408 -1.231859 -7.567695 7.670118 2.933800 -10.587100 -30.899600 32.370251 14.675320 10.779626 -0.941901 1.995371 -0.141906 1.387088 33.305528 -31.747227 -0.121200 -2.244100 6.180900 1.472730 -0.354782 -2.846335 -0.931946 -0.140595 6.283691 8.955030 -21.878280 11.227576 3.047000 -10.263100 11.081600 -88.258769 -7.996881 8.506271 7.882030 -18.562251 -2.187036 1.815783 1.523337 -10.165674 -7.125000 0.000000 0.000000 91.671644 1.289584 2.728976 -15.659160 32.123706 -3.323355 -1.586125 -2.232526 36.015265 7.125000 0.000000 0.000000 
20.432779 17.860818 0.281357 80.240463 88.756805 89.855772 -25.875662 -6.115970 -0.867557 0.172137 1.523026 6.080520 -1.233782 -7.574757 7.731745 2.945700 -10.606600 -30.964100 32.266571 14.392306 10.575555 -0.944556 1.928756 0.011149 1.421888 32.998313 -31.475604 -0.119300 -2.226500 6.132000 1.422340 -0.347576 -2.819179 -1.031866 -0.136793 6.318416 8.862893 -21.876588 11.235313 2.988000 -10.257000 11.054900 -88.136364 -8.006315 8.806466 7.994770 -18.692483 -2.205820 1.792388 1.564354 -10.432187 -7.125000 0.000000 0.000000 91.747075 1.338846 2.798939 -15.707213 32.190734 -3.321491 -1.555559 -2.282504 35.996482 7.125000 0.000000 0.000000 
20.429086 17.860384 0.280597 79.334805 88.805556 88.961546 -25.831697 -6.158874 -0.845538 0.174135 1.505553 6.039247 -1.244904 -7.628362 7.814025 2.977300 -10.658200 -31.135700 32.284297 14.276155 10.456944 -0.947213 1.898576 0.069697 1.468585 32.883723 -31.264531 -0.109600 -2.134700 5.878000 1.414442 -0.334395 -2.837386 -1.105371 -0.132043 6.303109 8.708250 -21.870630 11.202388 2.914900 -10.260000 10.993500 -88.067375 -7.950595 9.053181 8.079999 -18.795488 -2.217536 1.775259 1.587588 -10.650329 -7.125000 0.000000 0.000000 91.806328 1.401075 2.750203 -15.621186 32.135945 -3.295658 -1.542318 -2.289880 36.041585 7.125000 0.000000 0.000000 
20.424091 17.861035 0.280380 78.663160 88.780994 88.264171 -25.864275 -6.152801 -0.828354 0.177383 1.502428 6.036626 -1.253397 -7.667867 7.858347 3.000200 -10.695300 -31.259000 32.267128 14.307305 10.472884 -0.948395 1.900663 0.059824 1.477173 32.900212 -31.247755 -0.104100 -2.080100 5.727100 1.404509 -0.310387 -2.842086 -1.119490 -0.123799 6.277381 8.607653 -21.882710 11.237898 2.865400 -10.268100 10.986800 -88.023615 -7.925442 9.226069 8.128241 -18.853194 -2.224293 1.773840 1.584429 -10.805611 -7.125000 0.000000 0.000000 91.828649 1.454438 2.689118 -15.530349 32.060725 -3.265130 -1.535370 -2.266504 36.118886 7.125000 0.000000 0.000000 
20.417685 17.862664 0.280706 77.481075 88.789557 87.067338 -25.835516 -6.119767 -0.845594 0.179769 1.510357 6.070324 -1.248860 -7.641928 7.914109 2.999800 -10.694700 -31.256900 32.296185 14.388208 10.445534 -0.944876 1.882999 0.094875 1.435439 32.804169 -31.343679 -0.110600 -2.144200 5.904400 1.407504 -0.300817 -2.854326 -1.129596 -0.122416 6.245088 8.577210 -21.874729 11.226490 2.858400 -10.269200 10.965900 -88.021029 -7.873131 9.233349 8.176189 -18.905876 -2.233877 1.781786 1.565824 -10.829813 -7.125000 0.000000 0.000000 91.835934 1.365945 2.807491 -15.605024 32.137511 -3.290013 -1.560900 -2.227580 35.886158 7.125000 0.000000 0.000000 
